<?xml version="1.0" standalone="no"?><!-- Generator: Adobe Fireworks CS6, Export SVG Extension by Aaron Beall (http://fireworks.abeall.com) . Version: 0.6.1  --><!DOCTYPE svg PUBLIC "-//W3C//DTD SVG 1.1//EN" "http://www.w3.org/Graphics/SVG/1.1/DTD/svg11.dtd"><svg id="Untitled-Page%202" viewBox="0 0 84 34" style="background-color:#ffffff00" version="1.1"	xmlns="http://www.w3.org/2000/svg" xmlns:xlink="http://www.w3.org/1999/xlink" xml:space="preserve"	x="0px" y="0px" width="84px" height="34px">	<g id="Layer%201">		<path id="arrow" d="M 22.7421 1.5906 C 20.6941 0.6946 18.5181 0.4386 16.5981 0.4386 C 9.5581 0.4386 1.4941 5.4306 0.3421 15.1586 L 0.3421 18.4866 C 0.3421 19.6386 1.3661 22.7106 1.6221 23.3506 C 4.5661 30.3906 11.3501 33.0786 16.5981 33.0786 C 19.4141 33.0786 21.4621 32.8226 24.7901 30.9026 C 25.1741 30.6466 26.0701 30.1346 26.0701 29.7506 C 26.0701 29.4946 24.0221 25.5266 22.8701 23.3506 C 22.8701 23.2226 22.7421 23.0946 22.4861 23.0946 C 22.3581 23.0946 19.0301 25.2706 16.5981 25.2706 C 12.2461 25.2706 8.2781 21.5586 8.2781 16.8226 C 8.2781 12.3426 11.6061 8.3746 16.5981 8.3746 C 18.9021 8.3746 20.9501 9.0146 23.3821 11.7026 C 23.2541 11.7026 21.4621 12.3426 21.4621 12.9826 C 21.4621 13.4946 27.4781 15.5426 29.6541 16.0546 C 30.4221 14.2626 32.4701 8.5026 32.4701 8.1186 C 32.4701 7.9906 32.4701 7.6066 31.9581 7.6066 C 31.5741 7.6066 30.9341 8.1186 30.6781 8.1186 C 30.1661 8.1186 28.6301 4.0226 22.7421 1.5906 Z" fill="#7ecefd"/>		<path id="arrow2" d="M 83.6943 15.8859 L 76.6287 9.954 L 76.6287 12.3748 L 55.046 12.3748 L 48.2086 12.3748 L 48.2086 9.954 L 41.1416 15.8846 L 48.2086 21.8178 L 48.2086 19.3971 L 69.7886 19.3971 L 76.6287 19.3971 L 76.6287 21.8178 L 83.6943 15.8859 Z" fill="#7ecefd"/>	</g></svg>