<svg xmlns="http://www.w3.org/2000/svg" viewBox="0 0 384 288" preserveAspectRatio="none">
<path class="st0" d="M163.92,89.76c0.24,0,0.48,0,0.72,0c0-0.24,0-0.48,0-0.72c0.32,0,0.64,0,0.96,0c0.95,1.15,2.89,1.75,3.6,3.12
	c0.74,1.42,0.12,3.2,0.72,4.8c0.14,0.38,6.21,6.06,6.72,6.24c1.94-2.94,5.01-3.09,8.88-1.92c2.18,0.66,4.77,2.31,6.96,3.12
	c0.96,0.16,1.92,0.32,2.88,0.48c1.43,0.63,3.27,1.82,4.8,2.4c1.55,0.59,2.9,0.56,4.08,1.44c0.67,0.51,1.08,1.56,1.68,2.16
	c0,1.68,0,3.36,0,5.04c0.16,0,0.32,0,0.48,0c1.05-0.69,2.61-0.43,3.36-1.44c0.52-0.69,1.98-9.2,1.44-10.8
	c-0.22-0.65-1.22-1.27-1.44-1.92c-0.98-2.91,1.91-4.29,2.4-6.24c0.55-2.2-0.6-3.67-0.96-4.8c-0.08-1.44-0.16-2.88-0.24-4.32
	c0.56-0.56,1.12-1.12,1.68-1.68c1.46-0.86,2.92,0,3.6-1.68c0.74-1.16,0.24-4.57,0.24-6.24c0-3.2,0-6.4,0-9.6
	c-0.45-1.34-3.26-4.27-4.32-5.28c-0.02-1.67,0.19-3.31,0.48-4.32c0.35-1.22-0.52-1.75-0.24-2.4c0.51-1.52,1.84-1.64,2.16-3.36
	c-1.21-0.51-1.56-1.11-2.4-1.92c0.08-0.48,0.16-0.96,0.24-1.44c0.79-0.51,1.59-1.18,2.64-1.44c2.74-0.68,5.55,1.04,7.68,0.48
	c1.68-0.44,3.22-1.91,5.28-2.4c2.78-0.67,5.52,1.05,7.2,1.68c5.87,2.22,13.71,3.46,17.76,7.44c-0.63,3.33-0.79,7.35-1.68,9.6
	c-0.97,0.48-1.71,1.59-2.64,1.92c-0.8,0-1.6,0-2.4,0c-0.33,0.1-1.23,0.55-1.68,0.72c1.26,3.91-2.61,9.2-1.2,13.68
	c0.67,2.12,2.31,4.1,2.4,6.72c-0.59,0.57-2.57,2.81-2.4,3.84c0.15,0.91,1.85,1.4,1.44,2.88c-0.47,1.7-2.31,1.2-2.4,4.8
	c-0.96,0.16-1.92,0.32-2.88,0.48c-0.22,0.58-0.26,0.38-0.48,0.96c1.73,2.26,0.89,8.14,0,11.52c-0.14,0.54-0.56,1.06-0.48,1.92
	c0.13,1.31-0.8,2.78,0,4.8c0.26,0.65,1.21,1.26,1.44,1.92c0.2,0.56,1.04,6.88,0.96,7.2c-0.37,1.51-1.36,1.75-1.44,3.84
	c1.78,1.7,3.19,3.91,5.04,5.52c0.9,0.79,2.48,0.31,3.6,0.96c0.53,0.31,0.77,1.02,1.2,1.44c1.05,1.04,2.32,1.84,3.36,2.88
	c0.39,0.39,0.55,1.08,0.96,1.44c0.87,0.77,2.29,0.89,3.12,1.68c0.75-0.19,1.36-0.84,1.92-0.96c0.76-0.16,4.82,0.94,5.52,0.72
	c1.03-0.32,3.71-1.71,4.56-2.4c1.03-0.83,2.08-2.69,3.36-3.36c1.47-0.77,2.72-0.56,4.32-1.2c0.39-0.15,0.81-0.81,1.2-0.96
	c2.01-0.78,4.74,0.18,7.44-0.48c7.06-1.73,16.81-0.04,22.56,1.2c0.96,1.61,2.04,3.31,3.36,4.56c0,0.48,0,0.96,0,1.44
	c0.48,0,0.96,0,1.44,0c0.03,2.21,0.64,3.69,0.24,5.76c-0.78,0.46-4.19,2.26-4.56,2.88c1.61,1.84,0.17,7.77-0.48,9.12
	c-1.09,2.24-1.04,4.68-1.92,7.2c-0.6,1.72-2,1.99-3.12,3.12c-1.37,1.38-1.84,4.08-2.64,6c-0.37,0.88-1.53,1.45-1.2,2.4
	c0.39,1.1,2,2.21,1.44,3.36c-0.28,0.91-1.05,1.81-1.68,2.4c0.66,3.39-0.29,4.52-0.24,7.68c-0.35,0.25-3.78,2.78-3.84,2.88
	c-0.16,0.96-0.32,1.92-0.48,2.88c-0.4,0.32-0.8,0.64-1.2,0.96c-0.08,1.12-0.16,2.24-0.24,3.36c-0.54,1.31-1.91,4.61-0.96,6.48
	c0.48,0.94,1.69,1.21,2.4,1.92c1.26,1.26,2.77,2.93,3.6,4.56c1.59-0.43,1.9-0.85,3.84-0.72c1.56,1.9,4.88,2.49,6.24,4.56
	c0.91,1.39,1.68,8.76,0.96,11.52c-0.17,0.64-0.8,1.35-0.96,1.92c0,0.96,0,1.92,0,2.88c-0.13,0.4-0.82,1.04-0.96,1.44
	c-0.25,0.74,0.09,1.36-0.24,1.92c-0.47,0.8-1.52,1.27-2.16,1.92c-3.91,0.03-8.37,1.34-9.84,3.84c-0.16,0.96-0.32,1.92-0.48,2.88
	c-0.53,1.05-2.21,1.68-2.64,2.88c-0.55,1.55,0.18,2.59-0.72,3.6c-1.79,2.01-3.11,0.85-5.28,1.92c-1.46,0.72-2.88,2.51-6,1.68
	c-1.84-0.49-5.28-2.18-6.24-2.4c-2.72-0.24-5.44-0.48-8.16-0.72c-2.18-0.92-4.6-3.81-6.72-4.56c-0.8,0-1.6,0-2.4,0
	c-1.32-0.35-2.69-1.25-3.84-1.68c-0.96-0.16-1.92-0.32-2.88-0.48c-0.84-0.44-1.42-1.79-2.4-2.16c-1.45-0.54-2.55-0.13-3.84-0.72
	c-11.14-5.05-23.14-9.76-34.32-14.88c-1.04-0.16-2.08-0.32-3.12-0.48c-0.97-0.37-1.78-1.45-2.64-1.92c-1.36-0.75-3.08-1.3-4.32-1.92
	c-1.54-0.77-2.96-0.71-4.56-1.44c-5.54-2.51-11.85-5.11-17.52-7.68c-1.35-0.61-3.39,0.18-5.04-0.24c-0.73-0.19-1.68-0.77-2.4-0.96
	c-1.6-0.16-3.2-0.32-4.8-0.48c-2.03-0.73-2.52-3.08-5.28-3.36c-0.12-1.62-0.84-2.66-1.2-4.32c-0.24-0.08-0.48-0.16-0.72-0.24
	c-0.63-0.42-2.33-0.27-3.36-0.24c-0.24-1.44-0.48-2.88-0.72-4.32c-1.04,0-2.08,0-3.12,0c-1.82,1.23-4.91-0.12-6.72,1.44
	c-0.25-2.23-4.59-6.15-6.24-7.2c-0.86-0.55-1.69-0.09-2.88-0.48c-0.93-0.31-2.2-1.15-3.36-1.44c-2.43-0.6-5.6,0.65-7.68-0.24
	c-1.49-0.63-3.29-1.83-4.8-2.4c-2.66-1.01-4.95-1.49-7.2-2.88c-1.1-0.68-2.13-2.19-3.36-2.64c-0.8-0.08-1.6-0.16-2.4-0.24
	c-0.9-0.27-2.1-0.94-2.88-1.2c-0.48,0-0.96,0-1.44,0c-1.08-0.4-1.95-1.79-2.88-2.4c-1.53-1-3.55-0.79-5.28-1.68
	c-0.7-0.36-1.4-1.54-2.16-1.92c-1.41-0.71-2.63-0.6-4.08-1.2c-0.76-0.31-1.46-1.33-2.16-1.68c-3.51-1.73-11.33,1.65-13.2,0.48
	c-1.04-0.34-2.54-1.66-2.88-2.64c-0.4-1.16,0.5-2.82-0.48-3.36c-0.64,0-1.28,0-1.92,0c-1.96-0.67-4.3-2.14-6.24-2.88
	c-0.64-0.08-1.28-0.16-1.92-0.24c-1.87-0.82-3.41-3.34-4.8-3.84c-0.92-0.33-2.23,0.3-3.84-0.24c-2.23-0.74-6.43-4.7-7.44-6.72
	c-1.84-3.7-0.05-12.4,0.96-15.84c0.38-1.29-0.61-2.05-0.72-2.88c-0.06-0.46,0.41-1.14,0.48-1.44c0-2.88,0-5.76,0-8.64
	c0.4-1.14,2-1.74,2.4-2.88c0.53-1.51,0.14-4.42,0.24-5.76c1.84-1.84,3.68-3.68,5.52-5.52c4.06-2.39,12.66-3.63,18.72-2.16
	c1.28,0,2.56,0,3.84,0c5.65,1.46,11.92,3.47,16.32,6.24c0.77,0.48,3.32,0.85,4.32,0.24c2.68-0.92,3.14-6.66,5.04-8.64
	c1-1.04,2.76-1.19,3.36-2.64c1.2-1.85,0.12-4.65,0.72-7.2c1.57-6.67-0.46-9.29-3.84-12.48c-0.06-2-0.12-4.54,0.72-5.76
	c1.12-3.25,5.33-2.64,6.24-5.28c1.06-1.47,0.2-3.56,0.72-5.76c0.55-2.34,1.25-8.38,0.24-11.04c-0.53-1.39-3.42-3.72-4.56-4.8
	c-0.04-1.73-0.54-5.52,0.24-6.72c0.47-1.53,3.33-3.67,5.28-2.64c3.13-2.11,6.49-3.41,10.8-4.56c2.48-0.66,11.51,2.85,13.44,3.6
	c2.6,1.01,7.51,0.98,8.4,3.6c1.61,2.24,0.07,6.87-1.68,7.92c-1.51,0.91-3.84,0.98-4.56,2.64c-1.18,1.93,0.51,5.79-0.24,8.16
	c-0.12,0.39-0.84,1.05-0.96,1.44c0,2.56,0,5.12,0,7.68c-0.18,0.48-0.58,0.57-0.72,1.44c0.62,0.46,0.89,1.19,1.44,1.68
	c0.71,0.63,1.83,0.68,2.4,1.44c1.23,1.64,2.6,4.48,4.56,5.28c0.77,0.56,2.09,0.71,3.36,0.72c1.29-5,7.23-1.14,10.56-0.48
	c0.47-0.68,0.72-0.72,1.92-0.72c0.37,0.28,1.15,1.05,1.44,1.2C160,88.4,163.33,87.49,163.92,89.76z" fill="white">
	<animate attributeName="fill" values="yellow;darkorange;yellow;" dur="2" begin="0" repeatCount="indefinite"/>
</path>
</svg>
