<svg xmlns="http://www.w3.org/2000/svg" viewBox="0 0 1600 1067" preserveAspectRatio="none">
<path class="st0" d="M174.87,742.56l-5.27-91.44c0,0,7.12,3.35,17.71,3.35c9.1,0,30.16-3.35,30.16-6.22c0-2.87,2.39,0,2.39,0
	l6.7,91.92c0,0-8.14,8.35-25.37,8.14C194.97,748.23,182.05,750.22,174.87,742.56z">
	<animate attributeName="fill" values="yellow;white" dur="1" begin="0" calcMode="discrete" repeatCount="indefinite"/>
</path>
<path class="st0" d="M320.95,737.97l-2.73-89.48c0,0,0.73-3.64,1.82-2.73c1.09,0.91-0.55,3.46,2.73,4.18
	c3.27,0.73,25.47,0.91,33.47-1.27c8-2.18,8-5.09,8.19-6s2.73-2,3.09,0s7.82,94.05,7.82,94.05s-11.1,6.37-26.38,6.37
	S324.04,743.43,320.95,737.97z">
	<animate attributeName="fill" values="white;yellow" dur="1" begin="0" calcMode="discrete" repeatCount="indefinite"/>
</path>
<path class="st0" d="M469.38,732.72l-3.46-88.77c0,0,2.73-4.73,3.46-3.46c0.73,1.27,1.82,4.18,8.19,5.09
	c6.37,0.91,22.01,0.18,27.47-1.82c5.46-2,7.42-2.25,8.26-4.45c1.37-3.59,1.34-1.99,2.11-2.47c0.66-0.4,1.41,2.28,1.27,8.55
	c-0.07,3.11,6.55,82.95,6.55,82.95s-4.91,5.82-12.92,6.73s-24.74,3.46-30.38,1.64S469.38,732.72,469.38,732.72z">
	<animate attributeName="fill" values="yellow;white" dur="1" begin="0" calcMode="discrete" repeatCount="indefinite"/>
</path>
</svg>
