<?xml version="1.0" encoding="utf-8"?>
<!-- Generator: Adobe Illustrator 17.0.0, SVG Export Plug-In . SVG Version: 6.00 Build 0)  -->
<!DOCTYPE svg PUBLIC "-//W3C//DTD SVG 1.1//EN" "http://www.w3.org/Graphics/SVG/1.1/DTD/svg11.dtd">
<svg version="1.1" id="clippath-Page_x25_201" xmlns="http://www.w3.org/2000/svg" xmlns:xlink="http://www.w3.org/1999/xlink"
	 x="0px" y="0px" width="400px" height="352px" viewBox="0 0 400 352" enable-background="new 0 0 400 352" xml:space="preserve">
<path fill="none" d="z"/>
<g id="Layer_x25_201">
	<g>
		<defs>
			<path id="SVGID_1_" d="M199.863,46.029c41.401-23.464,84.002-31.401,117.985-16.589c43.209,18.831,51.263,65.595,45.917,108.392
				c-3.647,29.211-18.532,56.407-36.346,80.01c-33.476,44.355-86.214,85.326-129.362,102.225c-0.686,0.269-1.884,0.701-2.564,0.957
				c-0.901-0.339-2.395-0.86-3.303-1.221c-43.024-17.059-95.39-57.836-128.696-101.962c-17.814-23.603-32.699-50.8-36.345-80.01
				C21.804,95.035,29.858,48.271,73.067,29.44c33.982-14.812,76.585-6.875,117.985,16.589l4.435,2.411L199.863,46.029z"/>
		</defs>
		<clipPath id="SVGID_2_">
			<use xlink:href="#SVGID_1_"  overflow="visible"/>
		</clipPath>
		<g clip-path="url(#SVGID_2_)" enable-background="new    ">
			
				<image overflow="visible" width="400" height="400" xlink:href="../../../../../Desktop/img/global-hot-spots-india.png"  transform="matrix(1 0 0 1 0 -40)">
			</image>
		</g>
	</g>
</g>
<path fill="none" d="z"/>
</svg>
