<?xml version="1.0" standalone="no"?>
<!-- Generator: Adobe Fireworks CS6, Export SVG Extension by Aaron Beall (http://fireworks.abeall.com) . Version: 0.6.1  -->
<!DOCTYPE svg PUBLIC "-//W3C//DTD SVG 1.1//EN" "http://www.w3.org/Graphics/SVG/1.1/DTD/svg11.dtd">
<svg id="Untitled-Page%201" viewBox="0 0 700 550" style="background-color:#ffffff00" version="1.1"
	xmlns="http://www.w3.org/2000/svg" xmlns:xlink="http://www.w3.org/1999/xlink" xml:space="preserve"
	x="0px" y="0px" width="700px" height="550px"
>
                                   <g id="Island4" transform="translate(-300,0)">
<a xlink:href="" title="Island" accesskey="a">
<clipPath id="clipper4">
    <path id="CA-AB" d="M311.6,299.7c0.8,0.57,3.64-6.21,3.8-6.54c3.23-6.76,7.51-17.09,7.58-24.62c0.05-5.02-1.77-9.84-1.77-14.83
	c0-0.11,0.29-0.51,0.09-0.64c-0.39-0.25,4.71,2.39,4.71,2.39c0.33,0.42,0.52,0.91,0.38,1.45l-0.15,0.31l-0.16,0.31l0.13-0.25
	l2.29-4.12c1.65-2.84,8.68-6.44,10.96-8.79c2.44-2.51,0.71-2.72,3.39-4.98c2.24-1.89,4.62-3.69,7.34-4.86l8.31-3.57
	c3.24-1.39,6.3-7.87,9.96-7.58c13.9,1.11,19.15,2.09,32.84-2.6c7.49-2.57,13.31-8.45,21.08-10.39c0.78-0.19,1.64-0.44,2.46-0.34
	c11.04,1.29,12.87,6.9,25.16,3.19c4.12-1.25,7.84-3.7,10.82-6.8l-0.05,0.05c4.64,5.04,12.69,5.34,19.01,5.92
	c3.61,0.33,5.28-0.29,8.72-1c6.65-1.37,13.47-1.22,20.21-0.84c9.61,0.55,18.1,7.08,27.91,6c11.98-1.33,22.72-9.61,35.11-7.74
	c9.54,1.43,18.87,5.18,26.36,11.33c2.2,1.8,6.64,10.13,10.39,6.93l5.21-4.46c1.46-1.25,3.81-0.86,5.05,0.5
	c1.03,1.13,2.02,2.3,2.8,3.62c0.62,1.05,1.06,2.26,1.04,3.5c-0.06,2.8-0.62,5.56-0.78,8.35c-0.06,0.99,0.22,1.99,0.8,2.8
	c1.38,1.93,3.07,3.62,4.73,5.32c0.36,0.38,0.99,0.78,0.96,1.4c-0.16,3.5-0.81,7.18-3,10.03c-0.5,0.65-1.2,1.2-1.49,2
	c-0.59,1.58,0.67,3.12,1.84,4.01c1.37,1.05,3.03-0.4,3.82-1.48c2.89-3.94,5.27-8.67,9.62-11.27c0.9-0.54,1.95-0.24,2.92-0.16
	c1.78,0.17,3.86,0.33,5.32-0.92l12.39-10.57c3.65-3.11,7.98-5.61,10.77-9.62c2.08-3,3.67-6.3,5.45-9.48
	c0.79-1.4,0.64-0.88,1.52-2.21l2.02-3.16c1.68-2.87-0.16-6.19-2.13-8.36c-1.73-1.89-1.29-1.21-2.87-3.24
	c-1.06-1.36-0.74-3.19-0.66-4.78c0.06-1.12,0.07-2.35-0.65-3.28c-2.77-3.57-4.71-5.78-7.73-9.13c-0.82-0.91-1.89-1.65-3.11-1.87
	c-3.09-0.57-6.25-0.57-9.37-0.8c-1.74-0.13-2.95-1.82-3.01-3.47c-0.04-1.24,0.07-2.5-0.15-3.74c-0.33-1.91-1.79-3.32-2.96-4.77
	c-2.33-2.88-1.61-3.18,0.35-6.05c2.26-3.3,4.11-8.07,1.42-11.67l-0.35-0.37c-1.56-2.83-2.51-5.95-3.29-9.07
	c-0.92-3.68-1.64-7.41-2.06-11.18c-0.41-3.73-0.47-7.5-0.86-11.23c-0.18-1.68-0.67-3.3-0.99-4.95c-0.38-1.93,0.71-3.84,2.11-5.08
	c1.45-1.28,3.16-2.31,4.39-3.84c0.91-1.14,1.24-2.61,1.66-3.97c0.55-1.77,1.03-3.72,2.44-5.03c4.03-3.76,2.69-2.47,6.9-6.02
	c0.88-0.75,2.81-2.83,4.18-1.89c1.6,1.09,2.98,2.8,3.07,4.81c0.07,1.53-0.11,0.76,0.06,2.28c0.24,2.15,1.77,3.91,2.83,5.68
	c1.54,2.58,0.97,5.72,0.72,8.54c-0.37,4.31-0.78,8.62-0.85,12.95c-0.03,1.63,1.19,2.96,2.46,3.83c1.04,0.72,2.19-0.81,2.83-1.3
	c0.97-0.74,2.62-1.35,3.66-0.39c1.13,1.06,2.25,2.54,1.93,4.19c-0.51,2.63-2.29,4.86-3.61,7.09c-0.64,1.08-1.98,3.83-0.84,5.04
	c0.79,0.84,2.06,1.16,3.18,1.17c3.93,0.01,7.37-1.8,10.36-4.23l4.03-3.47c0.93-0.78,2.26-1.39,3.47-0.91
	c1.66,0.66,3.24,2.35,2.91,4.25c-0.35,2.06-1.19,3.98-1.81,5.95c-1.28,4.1-2.13,8.32-2.62,12.59c-0.06,0.53,0.32,0.98,0.5,1.43
	l2.3,5.83c0.69,1.75,2.73,2.73,4.52,2.07c1.48-0.54,3.25-1.83,4.82-0.75c2.25,1.55,3.31,4.65,2.47,7.25
	c-0.92,2.83-2.35,5.45-3.56,8.15c-0.75,1.68,0.57,3.14,1.95,3.93c2.1,1.21,4.61-0.09,6.68-0.66c3.4-0.93,7.52-0.81,10.21,1.75
	l0.47,0.61c2.6,2.75,6.29,3.75,9.82,2.22c2.02-0.87,2.47-3.33,3.27-5.12c1.06-2.37,2.47-4.55,3.68-6.83
	c0.5-0.93,0.54-2.06,0.74-3.07c0.56-2.76,1.43-3.45,4.07-4.37c2.84-0.99,5.96-1.57,8.27-3.63c2.26-2.02,4.37-4.24,6.89-5.95
	c1.41-0.94,3.11-1.37,4.79-1.39c1.86-0.02,3.58,1.69,3.54,3.56c-0.07,2.55-0.8,4.93-1.55,7.35c-0.78,2.55-1.74,5.19-1.32,7.9
	c0.03,0.24,0.23,0.49,0.11,0.74c-1.13,2.27-2.51,4.4-3.75,6.61c-1.38,2.44-1.15,5.25-0.09,7.76c0.78,1.83,1.81,3.68,1.35,5.74
	c-0.11,0.5-0.79,1.89,0.09,2.25c0.72,0.31,1.5,0.18,2.25,0.05c1.11-0.19,2.68-0.95,3.55,0.17c0.97,1.27,0.27,3.05-0.58,4.16
	l-0.55,0.55c-2.29,2.5-2.63,4.38-0.32,7.05l8.29,9.61c1.21,1.41,3.12,2.45,5.01,2.04c0.82-0.17,1.63-0.54,2.49-0.5
	c0.88,0.04,1.73,0.44,2.32,1.08c0.65,0.7-0.46,1.67-0.78,2.12c-1.15,1.61-1.32,3.9-0.09,5.51c1.8,2.36,3.62,4.77,5.85,6.74
	c2.35,2.07,6.03,2.07,8.43,0.1l7.99-6.68c1.56-1.34,2.36-2.3,3.85-3.71c1.17-1.11,3.31-1.28,4.43,0l4.5,5.17
	c0.77,0.89,2.23,1.92,3.39,1.1c1.15-0.81,0.37-2.36-0.05-3.33c-2.09-4.89-2.98-5.98,1.65-9.13c4.04-2.76,8.78-4.38,13.57-5.2
	c1.18-0.2,2.25,0.57,3.26,0.99l5.57,2.27c0.76,0.31,1.6,0.58,2.15,1.22l4.54,5.15c2.32,2.64,3.12,6.36,2.41,9.77
	c-0.63,3.05-2.68,5.62-4.23,8.21c-0.54,0.89-0.65,1.27-0.95,2.27l-0.76,2.66l-1.24,5.25c-0.58,2.36-1.22,4.71-2.11,6.98
	c-0.84,2.13-1.94,4.16-2.98,6.21l-4.1,8.13c-0.83,1.61-2.14,2.9-3.21,4.34c-0.71,0.96-1.23,1.87-1.63,3l3.13,0.53
	c2.91,0.44,5.86,0.53,8.78,0.75c3.29,0.25,6.78,0.9,9.15-1.99c3-3.64,5.32-7.77,7.97-11.66l2.26-3.03c4.46-6.07-0.01-0.01,4.36-6.14
	c0.76-1.06,0.46-0.51,1.31-1.48c1.95-2.18,3.65-4.56,5.44-6.86c0.92-1.18,1.84-2.4,2.98-3.38l2.53-2.1
	c0.86-0.76,1.66-1.94,2.93-2.04l1.52,0.05c1.29-0.01,0.67-0.01,1.8-0.53c3.07-1.4,5.24-1.92,8.56-1.08l3.17,0.86
	c2.11,0.63,4.27,1.62,5.64,3.41c0.57,0.75,0.09,0.37,0.82,0.97c2.51,2.05,5,4.16,7.81,5.81c0.46,0.28,0.99-0.09,1.46-0.09
	c0.77,0,1.95,0.23,2.67,0.51c2.12,0.83,3.82,2.46,5.99,3.18c0.69,0.23,0.78-0.05,1.47,0.07c0.32,0.06,0.65,0.33,0.84,0.58
	c1.23,1.56,0.86,3.67,0.89,5.5c0.04,1.92,1.09,3.65,2.28,5.09c4.97,6.02,10.24,11.8,15.37,17.69c1.18,1.34,1.38,3.24,1.38,4.96
	l-0.11,2.68c0,2.66,0.41,5.32,1.25,7.85c0.38,1.13,1.21,2.04,1.97,2.92l7.15,8.3c1.19,1.38,0.7,3.25,0.53,4.87
	c-0.27,2.59,0.02,3.96,0.89,6.39l0.74,2.13l-0.92-0.04L960,328.5l-1,2l5.5,0.5l-2,6h-18c1.07-1.07-0.93-3.07-2-2l-2-16
	c-1.07,1.07-3.07-0.93-2-2c-42.4-3.42-29.48,35.3-32,58c15.14,11.36,14,42.96,14,58c-2.65,2.69-4.11,0.75-4.04,4.57l0.04,3.43
	c-11.08,0.02-23.29,1.52-34-2c-0.31-4.79-18.95-18.53-24-22c-65.84-1.48-15.92,23.97-56,32c-53.07,10.63-29.84-52.94-106,42l-14-2
	l-6-6l-30,2l-32,26c-3.38-5.84-8.92-10.43-19-13c-14.09-14.63-39.02-61.51-40-62c2.35-3.01-11.05-13.05-14-16
	c11.9-45.15-82.74-27.31-92-36l-16-16c-1.52-1.52-4.81-9.81-8-8c-26.35-40.04-84.12-39.54-128-58
	C297.77,301.73,302.56,293.28,311.6,299.7z"/>
</clipPath>
<image clip-path="url(#clipper4)" width="950" height="750" xlink:href="1big.jpg" x="0" y="0"  role="image" title="Crowsnest Pass"></image>
</a>
</g>
</svg>