<?xml version="1.0" standalone="no"?><!-- Generator: Adobe Fireworks CS6, Export SVG Extension by Aaron Beall (http://fireworks.abeall.com) . Version: 0.6.1  --><!DOCTYPE svg PUBLIC "-//W3C//DTD SVG 1.1//EN" "http://www.w3.org/Graphics/SVG/1.1/DTD/svg11.dtd"><svg id="Untitled-Page%201" viewBox="0 0 157 166" style="background-color:#ffffff00" version="1.1"	xmlns="http://www.w3.org/2000/svg" xmlns:xlink="http://www.w3.org/1999/xlink" xml:space="preserve"	x="0px" y="0px" width="157px" height="166px">	<g id="Layer%201">		<g>			<path d="M 9.8561 22.6479 L 106.1305 0.8418 L 156.6197 85.6657 L 91.5494 159.8959 L 0.8444 120.9487 L 9.8561 22.6479 ZM 38.4504 98.5647 L 81.8818 117.2134 L 113.0388 81.6705 L 88.8635 41.0551 L 42.7654 51.4963 L 38.4504 98.5647 Z" fill="#01b0f0"/>		</g>		<path id="circle" d="M 128.3828 120.4838 C 128.3828 124.6719 124.9809 128.068 120.7864 128.068 C 116.5918 128.068 113.192 124.6719 113.192 120.4838 C 113.192 116.2952 116.5918 112.8996 120.7864 112.8996 C 124.9809 112.8996 128.3828 116.2952 128.3828 120.4838 Z" fill="#000000"/>		<path id="hand" d="M 148.9487 145.8748 L 148.9487 139.5903 C 148.9487 138.0365 147.6888 136.7758 146.137 136.7758 C 144.9147 136.7758 143.8781 137.5559 143.4902 138.6457 C 142.8227 138.1881 142.1156 137.7626 141.3752 137.37 L 141.3752 134.7883 C 141.3752 132.7533 139.9026 131.1037 138.088 131.1037 C 136.2713 131.1037 134.8008 132.7533 134.8008 134.7883 L 134.8008 135.058 C 134.0708 134.9195 133.347 134.8075 132.6315 134.7232 L 132.6315 131.5484 C 132.6315 129.5151 131.159 127.867 129.3422 127.867 C 127.5297 127.867 126.0571 129.5151 126.0571 131.5484 L 126.0571 134.7924 C 125.3084 134.9086 124.5846 135.0622 123.8879 135.2554 L 123.8879 121.6778 C 123.8879 119.6429 122.4175 117.9932 120.6007 117.9932 C 118.784 117.9932 117.3135 119.6429 117.3135 121.6778 L 117.3135 140.7135 C 117.1133 142.247 116.5188 143.1556 115.4947 143.3993 C 115.4864 143.4019 115.4739 143.403 115.4635 143.4061 C 111.2418 141.9569 107.3602 141.2071 105.946 142.6115 C 104.1334 144.4147 106.5467 147.5447 109.521 149.9056 L 118.9133 159.8684 C 121.362 163.4451 125.1144 164.8719 129.457 165.2749 C 129.6718 165.3035 129.8741 165.3208 130.066 165.3249 C 130.8107 165.3775 131.5699 165.404 132.3396 165.4061 C 134.392 165.4113 147.4949 166.2861 148.9737 147.7525 C 149.0634 147.1245 149.0509 146.4965 148.9487 145.8748 Z" stroke="#000000" stroke-width="1" fill="#ffffff"/>		<path d="M 20 71 L 24 67 L 28 76 L 30 75 L 27 66 L 32 66 L 21 56 L 20 71 Z" stroke="#000000" stroke-width="1" fill="#ffffff"/>	</g></svg>