<?xml version="1.0" encoding="utf-8"?>
<!-- Generator: Adobe Illustrator 17.0.0, SVG Export Plug-In . SVG Version: 6.00 Build 0)  -->
<!DOCTYPE svg PUBLIC "-//W3C//DTD SVG 1.1//EN" "http://www.w3.org/Graphics/SVG/1.1/DTD/svg11.dtd">
<svg version="1.1" id="Layer_1" xmlns="http://www.w3.org/2000/svg" xmlns:xlink="http://www.w3.org/1999/xlink" x="0px" y="0px"
	 width="495.349px" height="285px" viewBox="0 0 495.349 285" enable-background="new 0 0 495.349 285" xml:space="preserve">
<rect x="0.5" y="0.5" fill-rule="evenodd" clip-rule="evenodd" fill="#FFFFFF" width="271" height="171"/>
<rect x="226.5" y="134.5" fill-rule="evenodd" clip-rule="evenodd" fill="#FFFFFF" width="204" height="135"/>
<rect x="405.5" y="34.5" fill-rule="evenodd" clip-rule="evenodd" fill="#FFFFFF" width="84" height="142"/>
<rect x="29.5" y="158.5" fill-rule="evenodd" clip-rule="evenodd" fill="#FFFFFF" width="57" height="101"/>
<path fill-rule="evenodd" clip-rule="evenodd" d="M462,274c-1,4-6,11-10,11H206c-4-3-9-9-9-11H462z M223,176v54l-70-12v-42H223z
	 M127,176v42c-13,1-25,4-38,6v-48H127z M83,166v88H32v-88H83z M429,140v126H231V140H429z M486,38v133h-50v-34c-3-3-6-5-10-5h-18V38
	H486z M268,7v125h-38c-3,2-7,4-7,7v28H88c0.43-13.57-17-13-31-13c-17.5,0-28.94,0-29,13H8V7H268z M275,0v133h126l-0.28-94.15
	c0,0-2.22-10.35,6.78-10.35c5.11,0,69.23-0.32,78.5-0.5c11.16-0.22,9.22,12.47,9.22,12.47s-0.65,116.71-0.69,133.07
	C494.5,189.9,487.83,190,483,190h-48v82H224v-38c-9,3-22,9-24,9c-12,0-31-11-61-11c-20,0-29,1-51,10v22c-1,3-5,7-8,7c-7,2-20,1-22,1
	s-30,2-30-6v-91H0V0H275z"/>
<path fill-rule="evenodd" clip-rule="evenodd" fill="#FFB13B" stroke="#000000" stroke-width="5" stroke-linecap="round" stroke-linejoin="round" stroke-miterlimit="10" d="
	M39.11,66.89c-4.2-4.2-11.02-4.2-15.22,0s-4.2,11.02,0,15.22s11.02,4.2,15.22,0h22.02L45.56,97.68c-5.94,0-10.76,4.82-10.76,10.76
	c0,5.94,4.82,10.76,10.76,10.76s10.76-4.82,10.76-10.76l15.57-15.57v22.02c-4.2,4.2-4.2,11.02,0,15.22s11.02,4.2,15.22,0
	s4.2-11.02,0-15.22V92.87l15.57,15.57c0,5.94,4.82,10.76,10.76,10.76c5.94,0,10.76-4.82,10.76-10.76c0-5.94-4.82-10.76-10.76-10.76
	L97.87,82.11h22.02c4.2,4.2,11.02,4.2,15.22,0s4.2-11.02,0-15.22s-11.02-4.2-15.22,0H97.87l15.57-15.57
	c5.94,0,10.76-4.82,10.76-10.76s-4.82-10.76-10.76-10.76c-5.94,0-10.76,4.82-10.76,10.76L87.11,56.13V34.11
	c4.2-4.2,4.2-11.02,0-15.22s-11.02-4.2-15.22,0s-4.2,11.02,0,15.22v22.02L56.32,40.56c0-5.94-4.82-10.76-10.76-10.76
	S34.8,34.62,34.8,40.56s4.82,10.76,10.76,10.76l15.57,15.57H39.11z"/>
<path fill-rule="evenodd" clip-rule="evenodd" fill="#FFB13B" stroke="#000000" stroke-width="2" stroke-linecap="round" stroke-linejoin="round" stroke-miterlimit="10" d="
	M46.4,230.6c-1.05-1.05-2.75-1.05-3.8,0c-1.05,1.05-1.05,2.75,0,3.8c1.05,1.05,2.75,1.05,3.8,0h5.51l-3.9,3.9
	c-1.48,0-2.69,1.2-2.69,2.69c0,1.48,1.21,2.69,2.69,2.69c1.49,0,2.69-1.21,2.69-2.69l3.9-3.9v5.51c-1.05,1.05-1.05,2.75,0,3.8
	c1.05,1.05,2.75,1.05,3.8,0c1.05-1.05,1.05-2.75,0-3.8v-5.51l3.9,3.9c0,1.48,1.2,2.69,2.69,2.69c1.48,0,2.69-1.21,2.69-2.69
	c0-1.49-1.21-2.69-2.69-2.69l-3.9-3.9h5.51c1.05,1.05,2.75,1.05,3.8,0c1.05-1.05,1.05-2.75,0-3.8c-1.05-1.05-2.75-1.05-3.8,0h-5.51
	l3.9-3.9c1.48,0,2.69-1.2,2.69-2.69c0-1.48-1.21-2.69-2.69-2.69c-1.49,0-2.69,1.21-2.69,2.69l-3.9,3.9v-5.51
	c1.05-1.05,1.05-2.75,0-3.8c-1.05-1.05-2.75-1.05-3.8,0c-1.05,1.05-1.05,2.75,0,3.8v5.51l-3.9-3.9c0-1.48-1.2-2.69-2.69-2.69
	c-1.48,0-2.69,1.21-2.69,2.69c0,1.49,1.21,2.69,2.69,2.69l3.9,3.9H46.4z"/>
<path fill-rule="evenodd" clip-rule="evenodd" fill="#FFB13B" stroke="#000000" stroke-width="4" stroke-linecap="round" stroke-linejoin="round" stroke-miterlimit="10" d="
	M256.19,199.41c-3.36-3.36-8.82-3.36-12.18,0c-3.36,3.37-3.36,8.82,0,12.18c3.37,3.36,8.82,3.36,12.18,0h17.61l-12.45,12.45
	c-4.76,0-8.61,3.86-8.61,8.61c0,4.76,3.85,8.61,8.61,8.61c4.75,0,8.61-3.85,8.61-8.61l12.45-12.45v17.61
	c-3.36,3.37-3.36,8.82,0,12.18c3.36,3.36,8.82,3.36,12.18,0c3.36-3.36,3.36-8.81,0-12.18V220.2l12.45,12.45
	c0,4.76,3.86,8.61,8.61,8.61c4.76,0,8.61-3.85,8.61-8.61c0-4.75-3.85-8.61-8.61-8.61l-12.45-12.45h17.61
	c3.37,3.36,8.82,3.36,12.18,0c3.36-3.36,3.36-8.81,0-12.18c-3.36-3.36-8.81-3.36-12.18,0H303.2l12.45-12.45
	c4.76,0,8.61-3.86,8.61-8.61c0-4.76-3.85-8.61-8.61-8.61c-4.75,0-8.61,3.85-8.61,8.61l-12.45,12.45v-17.61
	c3.36-3.36,3.36-8.82,0-12.18c-3.36-3.36-8.82-3.36-12.18,0c-3.36,3.37-3.36,8.82,0,12.18v17.61l-12.45-12.45
	c0-4.76-3.86-8.61-8.61-8.61c-4.76,0-8.61,3.85-8.61,8.61c0,4.75,3.85,8.61,8.61,8.61l12.45,12.45H256.19z"/>
<path fill-rule="evenodd" clip-rule="evenodd" fill="#FFB13B" stroke="#000000" stroke-width="2" stroke-linecap="round" stroke-linejoin="round" stroke-miterlimit="10" d="
	M432.34,88.46c-1.68-1.68-4.4-1.68-6.08,0c-1.68,1.68-1.68,4.4,0,6.08c1.68,1.68,4.4,1.68,6.08,0h8.81l-6.23,6.23
	c-2.37,0-4.3,1.93-4.3,4.31c0,2.37,1.93,4.3,4.3,4.3c2.38,0,4.31-1.93,4.31-4.3l6.23-6.23v8.81c-1.68,1.68-1.68,4.4,0,6.08
	c1.68,1.68,4.4,1.68,6.08,0c1.68-1.68,1.68-4.4,0-6.08v-8.81l6.23,6.23c0,2.37,1.93,4.3,4.31,4.3c2.37,0,4.3-1.93,4.3-4.3
	c0-2.38-1.93-4.31-4.3-4.31l-6.23-6.23h8.81c1.68,1.68,4.4,1.68,6.08,0c1.68-1.68,1.68-4.4,0-6.08c-1.68-1.68-4.4-1.68-6.08,0h-8.81
	l6.23-6.23c2.37,0,4.3-1.93,4.3-4.31c0-2.37-1.93-4.3-4.3-4.3c-2.38,0-4.31,1.93-4.31,4.3l-6.23,6.23v-8.81
	c1.68-1.68,1.68-4.4,0-6.08c-1.68-1.68-4.4-1.68-6.08,0c-1.68,1.68-1.68,4.4,0,6.08v8.81l-6.23-6.23c0-2.37-1.93-4.3-4.31-4.3
	c-2.37,0-4.3,1.93-4.3,4.3c0,2.38,1.93,4.31,4.3,4.31l6.23,6.23H432.34z"/>
</svg>
