<?xml version="1.0" standalone="no"?><!-- Generator: Adobe Fireworks CS6, Export SVG Extension by Aaron Beall (http://fireworks.abeall.com) . Version: 0.6.1  --><!DOCTYPE svg PUBLIC "-//W3C//DTD SVG 1.1//EN" "http://www.w3.org/Graphics/SVG/1.1/DTD/svg11.dtd"><svg id="Untitled-Page%201" viewBox="0 0 71 71" style="background-color:#ffffff00" version="1.1"	xmlns="http://www.w3.org/2000/svg" xmlns:xlink="http://www.w3.org/1999/xlink" xml:space="preserve"	x="0px" y="0px" width="71px" height="71px">	<g id="Layer_1_1">		<path d="M 35.5 0.5 C 16.1702 0.5 0.5 16.1712 0.5 35.501 C 0.5 54.8307 16.1702 70.5 35.5 70.5 C 54.8298 70.5 70.5 54.8307 70.5 35.501 C 70.5 16.1712 54.8298 0.5 35.5 0.5 ZM 12.7032 43.6152 C 15.1535 38.2018 18.9562 34.166 21.4839 28.8378 C 22.4813 29.6543 23.6083 30.3391 23.8482 31.9295 C 21.3659 35.8183 19.467 40.2991 17.0941 44.3001 C 15.1042 44.2614 14.8188 43.9209 12.7032 43.6152 ZM 20.8116 46.0181 C 22.1359 41.3709 24.7149 37.397 26.8895 33.3031 C 27.9333 31.3375 28.8523 29.0893 29.928 27.1159 C 31.2823 24.6433 32.8794 22.7705 33.9812 20.2438 C 38.7842 29.4453 44.2778 37.9464 49.8527 46.3625 C 40.9385 47.2795 30.521 46.5172 20.8116 46.0181 ZM 52.5574 45.3332 C 50.5008 41.2355 47.3202 38.287 45.4648 33.9919 C 47.0599 33.4386 47.3018 31.5077 48.5042 30.552 C 52.8041 34.0809 55.177 39.5716 58.2968 44.3001 C 57.3149 45.5886 54.7408 45.2635 52.5574 45.3332 Z" fill="#000000"/>	</g></svg>