<?xml version="1.0" standalone="no"?>
<!-- Generator: Adobe Fireworks CS6, Export SVG Extension by Aaron Beall (http://fireworks.abeall.com) . Version: 0.6.1  -->
<!DOCTYPE svg PUBLIC "-//W3C//DTD SVG 1.1//EN" "http://www.w3.org/Graphics/SVG/1.1/DTD/svg11.dtd">
<svg id="Untitled-Page%201" viewBox="0 0 320 320" style="background-color:#ffffff00" version="1.1"
	xmlns="http://www.w3.org/2000/svg" xmlns:xlink="http://www.w3.org/1999/xlink" xml:space="preserve"
	x="0px" y="0px" width="320px" height="320px"
>
   
	<defs>
		<linearGradient id="gradient1" x1="0%" y1="49.9999%" x2="100%" y2="49.9999%">
			<stop stop-color="#7ecefd" stop-opacity="1" offset="1%"/>
			<stop stop-color="#e7e8e9" stop-opacity="1" offset="99%"/>
		</linearGradient>
	</defs>
	<g class="cloudIcon">
		<path d="M 320 275.089 C 320 299.8914 299.8944 320 275.088 320 L 44.912 320 C 20.1066 320 0 299.8914 0 275.089 L 0 44.911 C 0 20.1086 20.1066 0 44.912 0 L 275.088 0 C 299.8944 0 320 20.1086 320 44.911 L 320 275.089 Z" fill="#01b0f0"/>
		<g>
			<path d="M 275.088 320 C 299.8944 320 320 299.8914 320 275.089 L 320 170.446 L 222.7641 73.2106 L 63.1495 184.7232 L 198.4272 320 L 275.088 320 Z" fill="url(#gradient1)"/>
		</g>
		<path d="M 95.8016 91.9508 C 124.7002 91.9508 148.1275 115.3775 148.1275 144.2762 C 148.1275 173.1749 124.7002 196.6021 95.8016 196.6021 C 66.9029 196.6021 43.4761 173.1749 43.4761 144.2762 C 43.4761 115.3775 66.9029 91.9508 95.8016 91.9508 Z" fill="#7ecefd"/>
		<path d="M 174.2899 54.574 C 213.5104 54.574 245.3042 86.3684 245.3042 125.5883 C 245.3042 164.8083 213.5104 196.6021 174.2899 196.6021 C 135.0704 196.6021 103.2766 164.8083 103.2766 125.5883 C 103.2766 86.3684 135.0704 54.574 174.2899 54.574 Z" fill="#7ecefd"/>
		<path d="M 249.0415 114.3745 C 271.7469 114.3745 290.1545 132.7817 290.1545 155.4881 C 290.1545 178.1945 271.7469 196.6011 249.0415 196.6011 C 226.3351 196.6011 207.9284 178.1945 207.9284 155.4881 C 207.9284 132.7817 226.3351 114.3745 249.0415 114.3745 Z" fill="#7ecefd"/>
		<path d="M 245.3042 166.7009 L 103.2776 166.7009 L 96.5689 196.6011 L 249.2156 196.6011 L 245.3042 166.7009 Z" fill="#7bcdff"/>
		<path d="M 96.2055 103.8904 C 103.6718 103.8904 110.7971 105.3296 117.3416 107.9206 C 129.0865 84.9007 153.0032 69.1261 180.6191 69.1261 C 206.9679 69.1261 229.9491 83.4893 242.2056 104.8019 C 233.3167 75.7262 206.2754 54.5755 174.2899 54.5755 C 146.3816 54.5755 122.2472 70.6812 110.6387 94.0982 C 105.9336 92.7088 100.9566 91.9508 95.8016 91.9508 C 69.197 91.9508 47.2447 111.8119 43.9256 137.5137 C 52.9837 117.68 72.9783 103.8904 96.2055 103.8904 Z" fill="#ffffff"/>
		<path d="M 243.797 123.2864 C 268.2747 123.2864 288.1377 143.0067 288.3891 167.4237 C 289.5334 163.6454 290.1545 159.6406 290.1545 155.4881 C 290.1545 132.7827 271.7479 114.3745 249.0415 114.3745 C 233.5632 114.3745 220.088 122.9323 213.0751 135.5707 C 221.0739 127.9641 231.8858 123.2864 243.797 123.2864 Z" fill="#ffffff"/>
		<path d="M 118.2267 211.5522 L 73.3769 256.4026 L 73.3769 256.4026 " stroke="#7ecefd" stroke-width="10" fill="none"/>
		<path d="M 88.327 211.5522 L 73.3769 226.5023 L 73.3769 226.5023 " stroke="#7ecefd" stroke-width="10" fill="#7bcdff"/>
		<path d="M 148.1275 211.5522 L 103.2776 256.4026 L 103.2776 256.4026 " stroke="#7ecefd" stroke-width="10" fill="none"/>
		<path d="M 178.0282 211.5522 L 133.1773 256.4026 L 133.1773 256.4026 " stroke="#7ecefd" stroke-width="10" fill="none"/>
		<path d="M 207.9284 211.5522 L 163.0781 256.4026 L 163.0781 256.4026 " stroke="#7ecefd" stroke-width="10" fill="none"/>
		<path d="M 237.8286 211.5522 L 192.9783 256.4026 L 192.9783 256.4026 " stroke="#7ecefd" stroke-width="10" fill="none"/>
	</g>
</svg>